<mxfile host="Electron" agent="Mozilla/5.0 (Windows NT 10.0; Win64; x64) AppleWebKit/537.36 (KHTML, like Gecko) draw.io/26.0.4 Chrome/128.0.6613.186 Electron/32.2.5 Safari/537.36" version="26.0.4">
  <diagram name="Страница — 1" id="5Nctao79q0NCn6qZtWdf">
    <mxGraphModel dx="712" dy="696" grid="1" gridSize="10" guides="1" tooltips="1" connect="1" arrows="1" fold="1" page="1" pageScale="1" pageWidth="827" pageHeight="1169" math="0" shadow="0">
      <root>
        <mxCell id="0" />
        <mxCell id="1" parent="0" />
        <mxCell id="07jJq368tx_kwnSUkHXF-62" value="" style="rounded=0;whiteSpace=wrap;html=1;fillColor=none;dashed=1;dashPattern=8 8;" parent="1" vertex="1">
          <mxGeometry x="702.5" y="425" width="180" height="325" as="geometry" />
        </mxCell>
        <mxCell id="07jJq368tx_kwnSUkHXF-76" value="" style="rounded=1;whiteSpace=wrap;html=1;" parent="1" vertex="1">
          <mxGeometry x="565" y="525" width="50" height="20" as="geometry" />
        </mxCell>
        <mxCell id="07jJq368tx_kwnSUkHXF-61" value="" style="rounded=0;whiteSpace=wrap;html=1;fillColor=none;dashed=1;dashPattern=8 8;" parent="1" vertex="1">
          <mxGeometry x="320" y="425" width="330" height="325" as="geometry" />
        </mxCell>
        <mxCell id="07jJq368tx_kwnSUkHXF-66" value="" style="ellipse;whiteSpace=wrap;html=1;fillColor=none;dashed=1;strokeColor=#FFAB2B;strokeWidth=3;" parent="1" vertex="1">
          <mxGeometry x="325" y="490" width="112" height="250" as="geometry" />
        </mxCell>
        <mxCell id="07jJq368tx_kwnSUkHXF-38" value="" style="endArrow=none;html=1;rounded=0;strokeWidth=3;" parent="1" edge="1">
          <mxGeometry width="50" height="50" relative="1" as="geometry">
            <mxPoint x="787.16" y="610" as="sourcePoint" />
            <mxPoint x="787.16" y="440" as="targetPoint" />
          </mxGeometry>
        </mxCell>
        <mxCell id="07jJq368tx_kwnSUkHXF-37" value="" style="endArrow=none;html=1;rounded=0;strokeWidth=3;" parent="1" edge="1">
          <mxGeometry width="50" height="50" relative="1" as="geometry">
            <mxPoint x="495" y="610" as="sourcePoint" />
            <mxPoint x="495" y="440" as="targetPoint" />
          </mxGeometry>
        </mxCell>
        <mxCell id="07jJq368tx_kwnSUkHXF-16" value="" style="endArrow=none;html=1;rounded=0;strokeWidth=3;" parent="1" edge="1">
          <mxGeometry width="50" height="50" relative="1" as="geometry">
            <mxPoint x="510" y="212" as="sourcePoint" />
            <mxPoint x="785" y="417" as="targetPoint" />
            <Array as="points">
              <mxPoint x="785" y="212.6" />
            </Array>
          </mxGeometry>
        </mxCell>
        <mxCell id="07jJq368tx_kwnSUkHXF-14" value="" style="endArrow=none;html=1;rounded=0;strokeWidth=3;" parent="1" edge="1">
          <mxGeometry width="50" height="50" relative="1" as="geometry">
            <mxPoint x="495" y="410" as="sourcePoint" />
            <mxPoint x="494.76" y="238" as="targetPoint" />
          </mxGeometry>
        </mxCell>
        <mxCell id="07jJq368tx_kwnSUkHXF-1" value="" style="sketch=0;points=[[0.5,0,0],[1,0.5,0],[0.5,1,0],[0,0.5,0],[0.145,0.145,0],[0.8555,0.145,0],[0.855,0.8555,0],[0.145,0.855,0]];verticalLabelPosition=bottom;html=1;verticalAlign=top;aspect=fixed;align=center;pointerEvents=1;shape=mxgraph.cisco19.rect;prIcon=router;fillColor=#FAFAFA;strokeColor=#005073;" parent="1" vertex="1">
          <mxGeometry x="470" y="190" width="50" height="50" as="geometry" />
        </mxCell>
        <mxCell id="07jJq368tx_kwnSUkHXF-5" value="" style="html=1;verticalLabelPosition=bottom;align=center;labelBackgroundColor=#ffffff;verticalAlign=top;strokeWidth=1;strokeColor=#0080F0;shadow=0;dashed=0;shape=mxgraph.ios7.icons.cloud;" parent="1" vertex="1">
          <mxGeometry x="462.5" y="80" width="65" height="40" as="geometry" />
        </mxCell>
        <mxCell id="07jJq368tx_kwnSUkHXF-6" value="iNET" style="text;html=1;align=center;verticalAlign=middle;resizable=0;points=[];autosize=1;strokeColor=none;fillColor=none;" parent="1" vertex="1">
          <mxGeometry x="470" y="90" width="50" height="30" as="geometry" />
        </mxCell>
        <mxCell id="07jJq368tx_kwnSUkHXF-8" style="edgeStyle=orthogonalEdgeStyle;rounded=0;orthogonalLoop=1;jettySize=auto;html=1;entryX=0.5;entryY=0;entryDx=0;entryDy=0;entryPerimeter=0;endSize=0;strokeWidth=3;" parent="1" source="07jJq368tx_kwnSUkHXF-6" target="07jJq368tx_kwnSUkHXF-1" edge="1">
          <mxGeometry relative="1" as="geometry" />
        </mxCell>
        <mxCell id="07jJq368tx_kwnSUkHXF-9" value="&lt;b&gt;&lt;font style=&quot;font-size: 8px;&quot;&gt;&lt;font style=&quot;color: rgb(255, 22, 22);&quot;&gt;- &lt;/font&gt;&lt;font style=&quot;color: rgb(13, 0, 185);&quot;&gt;dhcp&lt;/font&gt;&lt;/font&gt;&lt;/b&gt;&lt;div&gt;&lt;b&gt;&lt;font style=&quot;font-size: 8px;&quot;&gt;&lt;font style=&quot;color: rgb(13, 0, 185);&quot;&gt;ens192&lt;/font&gt;&lt;/font&gt;&lt;/b&gt;&lt;/div&gt;" style="text;html=1;align=left;verticalAlign=middle;resizable=0;points=[];autosize=1;strokeColor=none;fillColor=none;" parent="1" vertex="1">
          <mxGeometry x="450" y="150" width="50" height="40" as="geometry" />
        </mxCell>
        <mxCell id="07jJq368tx_kwnSUkHXF-10" value="&lt;b&gt;&lt;font style=&quot;color: rgb(0, 153, 0);&quot;&gt;ISP&lt;/font&gt;&lt;/b&gt;" style="text;html=1;align=center;verticalAlign=middle;resizable=0;points=[];autosize=1;strokeColor=none;fillColor=none;" parent="1" vertex="1">
          <mxGeometry x="435" y="200" width="40" height="30" as="geometry" />
        </mxCell>
        <mxCell id="07jJq368tx_kwnSUkHXF-11" value="" style="sketch=0;points=[[0.5,0,0],[1,0.5,0],[0.5,1,0],[0,0.5,0],[0.145,0.145,0],[0.8555,0.145,0],[0.855,0.8555,0],[0.145,0.855,0]];verticalLabelPosition=bottom;html=1;verticalAlign=top;aspect=fixed;align=center;pointerEvents=1;shape=mxgraph.cisco19.rect;prIcon=router;fillColor=#FAFAFA;strokeColor=#005073;" parent="1" vertex="1">
          <mxGeometry x="470" y="400" width="50" height="50" as="geometry" />
        </mxCell>
        <mxCell id="07jJq368tx_kwnSUkHXF-17" value="&lt;font style=&quot;color: rgb(13, 0, 185); font-size: 9px;&quot;&gt;&lt;b style=&quot;&quot;&gt;ens256&lt;/b&gt;&lt;/font&gt;" style="text;html=1;align=center;verticalAlign=middle;resizable=0;points=[];autosize=1;strokeColor=none;fillColor=none;" parent="1" vertex="1">
          <mxGeometry x="446.5" y="375" width="50" height="30" as="geometry" />
        </mxCell>
        <mxCell id="07jJq368tx_kwnSUkHXF-18" value="&lt;b&gt;&lt;font style=&quot;color: rgb(0, 153, 0);&quot;&gt;HQ-RTR&lt;/font&gt;&lt;/b&gt;" style="text;html=1;align=center;verticalAlign=middle;resizable=0;points=[];autosize=1;strokeColor=none;fillColor=none;" parent="1" vertex="1">
          <mxGeometry x="405" y="395" width="70" height="30" as="geometry" />
        </mxCell>
        <mxCell id="07jJq368tx_kwnSUkHXF-20" value="" style="sketch=0;points=[[0.5,0,0],[1,0.5,0],[0.5,1,0],[0,0.5,0],[0.145,0.145,0],[0.8555,0.145,0],[0.855,0.8555,0],[0.145,0.855,0]];verticalLabelPosition=bottom;html=1;verticalAlign=top;aspect=fixed;align=center;pointerEvents=1;shape=mxgraph.cisco19.rect;prIcon=router;fillColor=#FAFAFA;strokeColor=#005073;" parent="1" vertex="1">
          <mxGeometry x="762.5" y="400" width="50" height="50" as="geometry" />
        </mxCell>
        <mxCell id="07jJq368tx_kwnSUkHXF-21" value="&lt;b&gt;&lt;font style=&quot;color: rgb(0, 153, 0);&quot;&gt;BR-RTR&lt;/font&gt;&lt;/b&gt;" style="text;html=1;align=center;verticalAlign=middle;resizable=0;points=[];autosize=1;strokeColor=none;fillColor=none;" parent="1" vertex="1">
          <mxGeometry x="800" y="395" width="70" height="30" as="geometry" />
        </mxCell>
        <mxCell id="07jJq368tx_kwnSUkHXF-23" value="&lt;b&gt;&lt;font style=&quot;color: rgb(13, 0, 185); font-size: 9px;&quot;&gt;ens224&lt;/font&gt;&lt;/b&gt;" style="text;html=1;align=center;verticalAlign=middle;resizable=0;points=[];autosize=1;strokeColor=none;fillColor=none;" parent="1" vertex="1">
          <mxGeometry x="739" y="374" width="50" height="30" as="geometry" />
        </mxCell>
        <mxCell id="07jJq368tx_kwnSUkHXF-24" value="" style="html=1;verticalLabelPosition=bottom;align=center;labelBackgroundColor=#ffffff;verticalAlign=top;strokeWidth=1;strokeColor=#4848B5;shadow=0;dashed=0;shape=mxgraph.ios7.icons.cloud;" parent="1" vertex="1">
          <mxGeometry x="462.5" y="290" width="65" height="40" as="geometry" />
        </mxCell>
        <mxCell id="07jJq368tx_kwnSUkHXF-25" value="" style="html=1;verticalLabelPosition=bottom;align=center;labelBackgroundColor=#ffffff;verticalAlign=top;strokeWidth=1;strokeColor=#4848B5;shadow=0;dashed=0;shape=mxgraph.ios7.icons.cloud;" parent="1" vertex="1">
          <mxGeometry x="755" y="230" width="65" height="40" as="geometry" />
        </mxCell>
        <mxCell id="07jJq368tx_kwnSUkHXF-26" value="&lt;b&gt;ISP-HQ&lt;/b&gt;" style="text;html=1;align=center;verticalAlign=middle;resizable=0;points=[];autosize=1;strokeColor=none;fillColor=none;" parent="1" vertex="1">
          <mxGeometry x="465" y="300" width="60" height="30" as="geometry" />
        </mxCell>
        <mxCell id="07jJq368tx_kwnSUkHXF-27" value="&lt;b&gt;ISP-BR&lt;/b&gt;" style="text;html=1;align=center;verticalAlign=middle;resizable=0;points=[];autosize=1;strokeColor=none;fillColor=none;" parent="1" vertex="1">
          <mxGeometry x="755" y="240" width="60" height="30" as="geometry" />
        </mxCell>
        <mxCell id="07jJq368tx_kwnSUkHXF-28" value="&lt;div&gt;&lt;b&gt;&lt;font style=&quot;font-size: 8px;&quot;&gt;&lt;font style=&quot;color: rgb(255, 13, 8);&quot;&gt;&amp;nbsp;&lt;/font&gt;&lt;font style=&quot;color: rgb(13, 0, 185);&quot;&gt;ens161&lt;/font&gt;&lt;/font&gt;&lt;/b&gt;&lt;/div&gt;" style="text;html=1;align=left;verticalAlign=middle;resizable=0;points=[];autosize=1;strokeColor=none;fillColor=none;" parent="1" vertex="1">
          <mxGeometry x="450" y="230" width="50" height="30" as="geometry" />
        </mxCell>
        <mxCell id="07jJq368tx_kwnSUkHXF-29" value="&lt;div&gt;&lt;b&gt;&lt;font style=&quot;color: rgb(13, 0, 185); font-size: 8px;&quot;&gt;&lt;font style=&quot;color: rgb(255, 13, 8);&quot;&gt;&amp;nbsp;&lt;/font&gt;ens224&lt;/font&gt;&lt;/b&gt;&lt;/div&gt;" style="text;html=1;align=left;verticalAlign=middle;resizable=0;points=[];autosize=1;strokeColor=none;fillColor=none;" parent="1" vertex="1">
          <mxGeometry x="520" y="190" width="50" height="30" as="geometry" />
        </mxCell>
        <mxCell id="07jJq368tx_kwnSUkHXF-30" value="&lt;b&gt;&lt;font style=&quot;color: rgb(255, 0, 0);&quot;&gt;172.16.5.0/28&lt;/font&gt;&lt;/b&gt;" style="text;html=1;align=center;verticalAlign=middle;resizable=0;points=[];autosize=1;strokeColor=none;fillColor=none;" parent="1" vertex="1">
          <mxGeometry x="812.5" y="235" width="100" height="30" as="geometry" />
        </mxCell>
        <mxCell id="07jJq368tx_kwnSUkHXF-31" value="&lt;b&gt;&lt;font style=&quot;color: rgb(255, 0, 0);&quot;&gt;172.16.4.0/28&lt;/font&gt;&lt;/b&gt;" style="text;html=1;align=center;verticalAlign=middle;resizable=0;points=[];autosize=1;strokeColor=none;fillColor=none;" parent="1" vertex="1">
          <mxGeometry x="370" y="295" width="100" height="30" as="geometry" />
        </mxCell>
        <mxCell id="07jJq368tx_kwnSUkHXF-32" value="&lt;font style=&quot;color: rgb(255, 6, 6); font-size: 9px;&quot;&gt;&lt;b style=&quot;&quot;&gt;.1&lt;/b&gt;&lt;/font&gt;" style="text;html=1;align=center;verticalAlign=middle;resizable=0;points=[];autosize=1;strokeColor=none;fillColor=none;" parent="1" vertex="1">
          <mxGeometry x="495" y="230" width="30" height="30" as="geometry" />
        </mxCell>
        <mxCell id="07jJq368tx_kwnSUkHXF-33" value="&lt;font style=&quot;color: rgb(255, 6, 6); font-size: 9px;&quot;&gt;&lt;b style=&quot;&quot;&gt;.1&lt;/b&gt;&lt;/font&gt;" style="text;html=1;align=center;verticalAlign=middle;resizable=0;points=[];autosize=1;strokeColor=none;fillColor=none;" parent="1" vertex="1">
          <mxGeometry x="520" y="180" width="30" height="30" as="geometry" />
        </mxCell>
        <mxCell id="07jJq368tx_kwnSUkHXF-34" value="&lt;font style=&quot;color: rgb(255, 6, 6); font-size: 9px;&quot;&gt;&lt;b style=&quot;&quot;&gt;.2&lt;/b&gt;&lt;/font&gt;" style="text;html=1;align=center;verticalAlign=middle;resizable=0;points=[];autosize=1;strokeColor=none;fillColor=none;" parent="1" vertex="1">
          <mxGeometry x="495" y="374" width="30" height="30" as="geometry" />
        </mxCell>
        <mxCell id="07jJq368tx_kwnSUkHXF-35" value="&lt;font style=&quot;color: rgb(255, 6, 6); font-size: 9px;&quot;&gt;&lt;b style=&quot;&quot;&gt;.2&lt;/b&gt;&lt;/font&gt;" style="text;html=1;align=center;verticalAlign=middle;resizable=0;points=[];autosize=1;strokeColor=none;fillColor=none;" parent="1" vertex="1">
          <mxGeometry x="785" y="374" width="30" height="30" as="geometry" />
        </mxCell>
        <mxCell id="07jJq368tx_kwnSUkHXF-41" value="" style="html=1;verticalLabelPosition=bottom;align=center;labelBackgroundColor=#ffffff;verticalAlign=top;strokeWidth=1;strokeColor=#4848B5;shadow=0;dashed=0;shape=mxgraph.ios7.icons.cloud;" parent="1" vertex="1">
          <mxGeometry x="737.5" y="490" width="95" height="50" as="geometry" />
        </mxCell>
        <mxCell id="07jJq368tx_kwnSUkHXF-42" value="" style="html=1;verticalLabelPosition=bottom;align=center;labelBackgroundColor=#ffffff;verticalAlign=top;strokeWidth=1;strokeColor=#4848B5;shadow=0;dashed=0;shape=mxgraph.ios7.icons.cloud;" parent="1" vertex="1">
          <mxGeometry x="460.5" y="490" width="65" height="40" as="geometry" />
        </mxCell>
        <mxCell id="07jJq368tx_kwnSUkHXF-43" value="&lt;b&gt;HQ-NET&lt;/b&gt;" style="text;html=1;align=center;verticalAlign=middle;resizable=0;points=[];autosize=1;strokeColor=none;fillColor=none;" parent="1" vertex="1">
          <mxGeometry x="457.5" y="500" width="70" height="30" as="geometry" />
        </mxCell>
        <mxCell id="07jJq368tx_kwnSUkHXF-44" value="&lt;b&gt;BR-NET&lt;/b&gt;" style="text;html=1;align=center;verticalAlign=middle;resizable=0;points=[];autosize=1;strokeColor=none;fillColor=none;" parent="1" vertex="1">
          <mxGeometry x="750" y="500" width="70" height="30" as="geometry" />
        </mxCell>
        <mxCell id="07jJq368tx_kwnSUkHXF-47" value="" style="image;points=[];aspect=fixed;html=1;align=center;shadow=0;dashed=0;image=img/lib/allied_telesis/computer_and_terminals/Server_Desktop.svg;" parent="1" vertex="1">
          <mxGeometry x="766.2" y="585" width="42.599999999999994" height="54" as="geometry" />
        </mxCell>
        <mxCell id="07jJq368tx_kwnSUkHXF-48" value="" style="endArrow=none;html=1;rounded=0;strokeWidth=3;" parent="1" source="07jJq368tx_kwnSUkHXF-39" edge="1">
          <mxGeometry width="50" height="50" relative="1" as="geometry">
            <mxPoint x="600" y="610" as="sourcePoint" />
            <mxPoint x="380" y="610" as="targetPoint" />
          </mxGeometry>
        </mxCell>
        <mxCell id="07jJq368tx_kwnSUkHXF-49" value="" style="endArrow=none;html=1;rounded=0;strokeWidth=3;" parent="1" edge="1">
          <mxGeometry width="50" height="50" relative="1" as="geometry">
            <mxPoint x="600" y="670" as="sourcePoint" />
            <mxPoint x="600" y="608.4" as="targetPoint" />
          </mxGeometry>
        </mxCell>
        <mxCell id="07jJq368tx_kwnSUkHXF-50" value="" style="endArrow=none;html=1;rounded=0;strokeWidth=3;" parent="1" edge="1">
          <mxGeometry width="50" height="50" relative="1" as="geometry">
            <mxPoint x="380" y="658.4" as="sourcePoint" />
            <mxPoint x="380" y="608.4" as="targetPoint" />
          </mxGeometry>
        </mxCell>
        <mxCell id="07jJq368tx_kwnSUkHXF-46" value="" style="image;points=[];aspect=fixed;html=1;align=center;shadow=0;dashed=0;image=img/lib/allied_telesis/computer_and_terminals/Personal_Computer_with_Server.svg;" parent="1" vertex="1">
          <mxGeometry x="341.7" y="650" width="62.400000000000006" height="62.400000000000006" as="geometry" />
        </mxCell>
        <mxCell id="07jJq368tx_kwnSUkHXF-45" value="" style="image;points=[];aspect=fixed;html=1;align=center;shadow=0;dashed=0;image=img/lib/allied_telesis/computer_and_terminals/Server_Desktop.svg;" parent="1" vertex="1">
          <mxGeometry x="580" y="658.4" width="42.599999999999994" height="54" as="geometry" />
        </mxCell>
        <mxCell id="07jJq368tx_kwnSUkHXF-51" value="" style="endArrow=none;html=1;rounded=0;strokeWidth=3;" parent="1" target="07jJq368tx_kwnSUkHXF-39" edge="1">
          <mxGeometry width="50" height="50" relative="1" as="geometry">
            <mxPoint x="600" y="610" as="sourcePoint" />
            <mxPoint x="380" y="610" as="targetPoint" />
          </mxGeometry>
        </mxCell>
        <mxCell id="07jJq368tx_kwnSUkHXF-39" value="" style="sketch=0;points=[[0.015,0.015,0],[0.985,0.015,0],[0.985,0.985,0],[0.015,0.985,0],[0.25,0,0],[0.5,0,0],[0.75,0,0],[1,0.25,0],[1,0.5,0],[1,0.75,0],[0.75,1,0],[0.5,1,0],[0.25,1,0],[0,0.75,0],[0,0.5,0],[0,0.25,0]];verticalLabelPosition=bottom;html=1;verticalAlign=top;aspect=fixed;align=center;pointerEvents=1;shape=mxgraph.cisco19.rect;prIcon=l2_switch;fillColor=#FAFAFA;strokeColor=#005073;" parent="1" vertex="1">
          <mxGeometry x="470" y="585" width="50" height="50" as="geometry" />
        </mxCell>
        <mxCell id="07jJq368tx_kwnSUkHXF-52" value="" style="html=1;verticalLabelPosition=bottom;align=center;labelBackgroundColor=#ffffff;verticalAlign=top;strokeWidth=1;strokeColor=#4848B5;shadow=0;dashed=0;shape=mxgraph.ios7.icons.cloud;" parent="1" vertex="1">
          <mxGeometry x="568.8" y="585" width="65" height="40" as="geometry" />
        </mxCell>
        <mxCell id="07jJq368tx_kwnSUkHXF-53" value="" style="html=1;verticalLabelPosition=bottom;align=center;labelBackgroundColor=#ffffff;verticalAlign=top;strokeWidth=1;strokeColor=#4848B5;shadow=0;dashed=0;shape=mxgraph.ios7.icons.cloud;" parent="1" vertex="1">
          <mxGeometry x="349" y="585" width="65" height="40" as="geometry" />
        </mxCell>
        <mxCell id="07jJq368tx_kwnSUkHXF-54" value="&lt;b&gt;CLI-NET&lt;/b&gt;" style="text;html=1;align=center;verticalAlign=middle;resizable=0;points=[];autosize=1;strokeColor=none;fillColor=none;" parent="1" vertex="1">
          <mxGeometry x="346.5" y="597" width="70" height="30" as="geometry" />
        </mxCell>
        <mxCell id="07jJq368tx_kwnSUkHXF-55" value="&lt;b&gt;SRV-NET&lt;/b&gt;" style="text;html=1;align=center;verticalAlign=middle;resizable=0;points=[];autosize=1;strokeColor=none;fillColor=none;" parent="1" vertex="1">
          <mxGeometry x="561.3" y="595" width="80" height="30" as="geometry" />
        </mxCell>
        <mxCell id="07jJq368tx_kwnSUkHXF-56" value="&lt;font size=&quot;1&quot; color=&quot;#0d00b9&quot;&gt;&lt;b&gt;ens256&lt;/b&gt;&lt;/font&gt;" style="text;html=1;align=center;verticalAlign=middle;resizable=0;points=[];autosize=1;strokeColor=none;fillColor=none;" parent="1" vertex="1">
          <mxGeometry x="734" y="442" width="60" height="30" as="geometry" />
        </mxCell>
        <mxCell id="07jJq368tx_kwnSUkHXF-58" value="&lt;b&gt;&lt;font style=&quot;color: rgb(0, 153, 0);&quot;&gt;CLI&lt;/font&gt;&lt;/b&gt;" style="text;html=1;align=center;verticalAlign=middle;resizable=0;points=[];autosize=1;strokeColor=none;fillColor=none;" parent="1" vertex="1">
          <mxGeometry x="320" y="639" width="40" height="30" as="geometry" />
        </mxCell>
        <mxCell id="07jJq368tx_kwnSUkHXF-59" value="&lt;b&gt;&lt;font style=&quot;color: rgb(0, 153, 0);&quot;&gt;SRV&lt;/font&gt;&lt;/b&gt;" style="text;html=1;align=center;verticalAlign=middle;resizable=0;points=[];autosize=1;strokeColor=none;fillColor=none;" parent="1" vertex="1">
          <mxGeometry x="550" y="639" width="50" height="30" as="geometry" />
        </mxCell>
        <mxCell id="07jJq368tx_kwnSUkHXF-60" value="&lt;b&gt;&lt;font style=&quot;color: rgb(0, 153, 0);&quot;&gt;SRV&lt;/font&gt;&lt;/b&gt;" style="text;html=1;align=center;verticalAlign=middle;resizable=0;points=[];autosize=1;strokeColor=none;fillColor=none;" parent="1" vertex="1">
          <mxGeometry x="712.5" y="597" width="50" height="30" as="geometry" />
        </mxCell>
        <mxCell id="07jJq368tx_kwnSUkHXF-63" value="&lt;font style=&quot;font-size: 19px; color: rgb(255, 0, 0);&quot;&gt;&lt;b style=&quot;&quot;&gt;HQ&lt;/b&gt;&lt;/font&gt;" style="text;html=1;align=center;verticalAlign=middle;resizable=0;points=[];autosize=1;strokeColor=none;fillColor=none;" parent="1" vertex="1">
          <mxGeometry x="415" y="712.4" width="50" height="40" as="geometry" />
        </mxCell>
        <mxCell id="07jJq368tx_kwnSUkHXF-64" value="&lt;font style=&quot;font-size: 19px; color: rgb(255, 0, 0);&quot;&gt;&lt;b style=&quot;&quot;&gt;BR&lt;/b&gt;&lt;/font&gt;" style="text;html=1;align=center;verticalAlign=middle;resizable=0;points=[];autosize=1;strokeColor=none;fillColor=none;" parent="1" vertex="1">
          <mxGeometry x="730" y="712.4" width="50" height="40" as="geometry" />
        </mxCell>
        <mxCell id="07jJq368tx_kwnSUkHXF-67" value="" style="ellipse;whiteSpace=wrap;html=1;fillColor=none;dashed=1;strokeColor=#FFAB2B;strokeWidth=3;" parent="1" vertex="1">
          <mxGeometry x="534" y="490" width="112" height="247" as="geometry" />
        </mxCell>
        <mxCell id="07jJq368tx_kwnSUkHXF-70" value="" style="ellipse;whiteSpace=wrap;html=1;fillColor=none;dashed=1;strokeColor=#FFAB2B;strokeWidth=3;" parent="1" vertex="1">
          <mxGeometry x="443" y="640" width="90" height="100" as="geometry" />
        </mxCell>
        <mxCell id="07jJq368tx_kwnSUkHXF-74" value="" style="rounded=1;whiteSpace=wrap;html=1;" parent="1" vertex="1">
          <mxGeometry x="356.5" y="520" width="50" height="20" as="geometry" />
        </mxCell>
        <mxCell id="07jJq368tx_kwnSUkHXF-68" value="&lt;b&gt;&lt;font style=&quot;color: rgb(0, 0, 0); font-size: 10px;&quot;&gt;VLAN100&lt;/font&gt;&lt;/b&gt;" style="text;html=1;align=center;verticalAlign=middle;resizable=0;points=[];autosize=1;strokeColor=none;fillColor=none;" parent="1" vertex="1">
          <mxGeometry x="346" y="515" width="70" height="30" as="geometry" />
        </mxCell>
        <mxCell id="07jJq368tx_kwnSUkHXF-75" value="&lt;b&gt;&lt;font style=&quot;color: rgb(0, 0, 0); font-size: 10px;&quot;&gt;VLAN200&lt;/font&gt;&lt;/b&gt;" style="text;html=1;align=center;verticalAlign=middle;resizable=0;points=[];autosize=1;strokeColor=none;fillColor=none;" parent="1" vertex="1">
          <mxGeometry x="555" y="520" width="70" height="30" as="geometry" />
        </mxCell>
        <mxCell id="07jJq368tx_kwnSUkHXF-78" value="" style="rounded=1;whiteSpace=wrap;html=1;" parent="1" vertex="1">
          <mxGeometry x="462.5" y="678.4" width="50" height="20" as="geometry" />
        </mxCell>
        <mxCell id="07jJq368tx_kwnSUkHXF-77" value="&lt;b&gt;&lt;font style=&quot;color: rgb(0, 0, 0); font-size: 10px;&quot;&gt;VLAN999&lt;/font&gt;&lt;/b&gt;" style="text;html=1;align=center;verticalAlign=middle;resizable=0;points=[];autosize=1;strokeColor=none;fillColor=none;" parent="1" vertex="1">
          <mxGeometry x="452.5" y="673.4" width="70" height="30" as="geometry" />
        </mxCell>
        <mxCell id="07jJq368tx_kwnSUkHXF-79" value="&lt;b&gt;&lt;i&gt;&lt;font style=&quot;color: rgb(255, 27, 22); font-size: 10px;&quot;&gt;192.168.100.0/26&lt;/font&gt;&lt;/i&gt;&lt;/b&gt;" style="text;html=1;align=center;verticalAlign=middle;resizable=0;points=[];autosize=1;strokeColor=none;fillColor=none;" parent="1" vertex="1">
          <mxGeometry x="331.5" y="533" width="100" height="30" as="geometry" />
        </mxCell>
        <mxCell id="07jJq368tx_kwnSUkHXF-80" value="&lt;b&gt;&lt;i&gt;&lt;font style=&quot;color: rgb(255, 27, 22); font-size: 10px;&quot;&gt;192.168.200.0/28&lt;/font&gt;&lt;/i&gt;&lt;/b&gt;&lt;span style=&quot;color: rgba(0, 0, 0, 0); font-family: monospace; font-size: 0px; text-align: start;&quot;&gt;%3CmxGraphModel%3E%3Croot%3E%3CmxCell%20id%3D%220%22%2F%3E%3CmxCell%20id%3D%221%22%20parent%3D%220%22%2F%3E%3CmxCell%20id%3D%222%22%20value%3D%22%26lt%3Bb%26gt%3B%26lt%3Bi%26gt%3B%26lt%3Bfont%20style%3D%26quot%3Bcolor%3A%20rgb(255%2C%2027%2C%2022)%3B%20font-size%3A%2010px%3B%26quot%3B%26gt%3B192.168.100.0%2F26%26lt%3B%2Ffont%26gt%3B%26lt%3B%2Fi%26gt%3B%26lt%3B%2Fb%26gt%3B%22%20style%3D%22text%3Bhtml%3D1%3Balign%3Dcenter%3BverticalAlign%3Dmiddle%3Bresizable%3D0%3Bpoints%3D%5B%5D%3Bautosize%3D1%3BstrokeColor%3Dnone%3BfillColor%3Dnone%3B%22%20vertex%3D%221%22%20parent%3D%221%22%3E%3CmxGeometry%20x%3D%22331.5%22%20y%3D%22533%22%20width%3D%22100%22%20height%3D%2230%22%20as%3D%22geometry%22%2F%3E%3C%2FmxCell%3E%3C%2Froot%3E%3C%2FmxGraphModel%3E&lt;/span&gt;" style="text;html=1;align=center;verticalAlign=middle;resizable=0;points=[];autosize=1;strokeColor=none;fillColor=none;" parent="1" vertex="1">
          <mxGeometry x="540" y="538" width="100" height="30" as="geometry" />
        </mxCell>
        <mxCell id="07jJq368tx_kwnSUkHXF-81" value="&lt;b&gt;&lt;i&gt;&lt;font style=&quot;color: rgb(255, 27, 22); font-size: 10px;&quot;&gt;192.168.300.0/27&lt;/font&gt;&lt;/i&gt;&lt;/b&gt;&lt;span style=&quot;color: rgba(0, 0, 0, 0); font-family: monospace; font-size: 0px; text-align: start;&quot;&gt;%3CmxGraphModel%3E%3Croot%3E%3CmxCell%20id%3D%220%22%2F%3E%3CmxCell%20id%3D%221%22%20parent%3D%220%22%2F%3E%3CmxCell%20id%3D%222%22%20value%3D%22%26lt%3Bb%26gt%3B%26lt%3Bi%26gt%3B%26lt%3Bfont%20style%3D%26quot%3Bcolor%3A%20rgb(255%2C%2027%2C%2022)%3B%20font-size%3A%2010px%3B%26quot%3B%26gt%3B192.168.100.0%2F26%26lt%3B%2Ffont%26gt%3B%26lt%3B%2Fi%26gt%3B%26lt%3B%2Fb%26gt%3B%22%20style%3D%22text%3Bhtml%3D1%3Balign%3Dcenter%3BverticalAlign%3Dmiddle%3Bresizable%3D0%3Bpoints%3D%5B%5D%3Bautosize%3D1%3BstrokeColor%3Dnone%3BfillColor%3Dnone%3B%22%20vertex%3D%221%22%20parent%3D%221%22%3E%3CmxGeometry%20x%3D%22331.5%22%20y%3D%22533%22%20width%3D%22100%22%20height%3D%2230%22%20as%3D%22geometry%22%2F%3E%3C%2FmxCell%3E%3C%2Froot%3E%3C%2FmxGraphModel%3E&lt;/span&gt;" style="text;html=1;align=center;verticalAlign=middle;resizable=0;points=[];autosize=1;strokeColor=none;fillColor=none;" parent="1" vertex="1">
          <mxGeometry x="732.5" y="515" width="100" height="30" as="geometry" />
        </mxCell>
        <mxCell id="07jJq368tx_kwnSUkHXF-83" value="&lt;font style=&quot;color: rgb(255, 6, 6); font-size: 9px;&quot;&gt;&lt;b style=&quot;&quot;&gt;.2&lt;/b&gt;&lt;/font&gt;" style="text;html=1;align=center;verticalAlign=middle;resizable=0;points=[];autosize=1;strokeColor=none;fillColor=none;" parent="1" vertex="1">
          <mxGeometry x="790" y="567" width="30" height="30" as="geometry" />
        </mxCell>
        <mxCell id="07jJq368tx_kwnSUkHXF-84" value="&lt;font style=&quot;color: rgb(255, 6, 6); font-size: 9px;&quot;&gt;&lt;b style=&quot;&quot;&gt;.1&lt;/b&gt;&lt;/font&gt;" style="text;html=1;align=center;verticalAlign=middle;resizable=0;points=[];autosize=1;strokeColor=none;fillColor=none;" parent="1" vertex="1">
          <mxGeometry x="785" y="440" width="30" height="30" as="geometry" />
        </mxCell>
      </root>
    </mxGraphModel>
  </diagram>
</mxfile>
